<svg xmlns="http://www.w3.org/2000/svg" viewBox="0 0 1134 608"><path fill="#8D4C12" fill-rule="evenodd" d="M235.2 603.8C234.7 603.4 232.7 602.1 230.8 600.8C226.7 598.2 225.5 597 217.3 588.5C208.1 579 205.1 576.5 197.8 572.8C187.4 567.5 179.8 565.7 165.2 565C160.3 564.7 125.8 564.5 88.5 564.5C51.2 564.5 17 564.4 12.4 564.2L4 563.8L4 561.1L4 558.4L81.9 558.6C164.8 558.9 167.2 558.9 183.5 561.6C196.2 563.6 210.6 572.8 222.7 586.6C231.8 596.9 241.3 602.1 251.5 602.2C256.6 602.3 259.2 601.5 259.9 599.6C262.2 594.1 261.9 582.7 259.2 571.1C258.3 567.2 258.3 567 259.2 567C261 567 264.9 577.5 266 584.9C266.6 588.8 266.4 595.2 265.7 599.6C265.4 601.3 265.5 601.4 267.7 602.5C269 603.2 270.2 603.9 270.3 604.1C270.8 604.8 236.4 604.5 235.2 603.8ZM299.2 603.5C300.5 602.1 301.5 597.4 301.5 592.2C301.5 585.8 300.5 581.2 296.9 571C294.2 563.4 294.2 563 295.3 563C296.5 563 299.6 567.2 301.7 571.7C306.5 581.6 307.7 590.7 305.9 601.2C305.7 602.6 308 603.1 312.2 602.4C319.2 601.4 324.9 597.1 328.1 590.7L329.7 587.2L329.7 578.8C329.7 570.9 329.6 569.9 328.3 565.2C321.9 542.7 309.8 527.4 290 516.8C272.3 507.3 248.7 502.6 212.8 501.5C191.9 500.9 184.6 500.3 170.3 498.5C145.4 495.2 130 499.5 104.2 516.8C95.1 523 93 524 93 522.4C93 521.6 98.4 516.2 102.2 513C112.1 505 123.8 498.3 133.5 495.1C144.9 491.4 153.4 490.9 168.5 492.8C184.2 494.9 221.4 496.8 222.5 495.7C222.9 495.3 222.6 494.7 221.7 493.7C217.5 489 211.2 477.3 211.6 475.1C211.9 473.3 213.3 474.4 216.4 479C220.1 484.5 226.8 493.2 228.9 495.1C230.4 496.5 230.5 496.6 239.2 497.3C248 497.9 260.8 500 267.5 501.8C269 502.3 270.9 502.8 271.8 503C272.6 503.2 275.2 504 277.5 504.9C303.7 514.1 319.9 528.8 329.7 552.1C330.1 553.2 330.7 554 331.1 554.1C332.2 554.1 360.1 553.9 392.5 553.6L422.7 553.2L423.1 551.8C424.8 545.7 425.1 540.6 424.8 529C424.6 522.5 424.3 516.4 424 515.2C423 510.8 422.8 506.5 423.7 506.5C425.4 506.5 428.2 515.2 429.1 523C430 530.3 429.9 544.8 429 549.4C428.7 551.4 428.4 553.1 428.6 553.2C428.7 553.4 435.2 553.6 443 553.8C466.1 554.2 471 554.9 479.2 558.9C485.1 561.8 490.3 565.8 496.1 572C506.3 582.9 514.7 587.5 524.5 587.6C529.1 587.7 532.2 586.9 533 585.5C534.9 582 534.7 569.7 532.7 559.6C531.5 553.5 531.6 551.4 533 552.8C534 553.8 537.3 562.2 538 565.5C538.8 569.1 539 582.1 538.3 585C537.9 586.9 538.2 587.2 543.2 589.3C553.4 593.5 567.4 593.1 571.6 588.6C576 583.9 574.1 565.7 567.8 551.8C565.6 546.9 567.3 546.5 570.6 551.1C577.1 560.2 580.4 572.4 579.1 582.7C578.8 585.1 578.7 587.3 578.8 587.6C579.2 588.3 583.3 588.1 586.7 587.2C603.6 582.9 606.7 562.2 594.2 536.5C580.1 507.5 554.9 492.5 510.3 486.5C508.1 486.2 499.8 485.6 491.8 485.2C468.6 484 455.7 482.3 447.6 479.2C445.8 478.5 444.2 478 443.9 478C443.7 478 443.5 480.1 443.5 482.6C443.5 491.2 441.6 508.6 440 514.8C437.9 522.5 435.9 526.5 434.3 525.8C433.3 525.5 433.3 523.6 434.3 520C436.9 510.5 437.8 502 437.7 486.8C437.7 467.7 435.9 454.6 430.2 432.3C429.2 428.5 429.1 427.2 429.5 426.7C430.4 425.7 431 426.3 432.5 429.7C436.7 439 440.5 453.1 441.9 464.9L442.8 471.6L446.8 473.1C457.3 477 467.5 478.5 490.5 479.5C508 480.3 514 480.9 526 482.9C545.4 486.3 563.7 494.2 577.1 504.9C580.5 507.6 581.9 509 587.1 514.8C592.2 520.5 598.5 531.2 602 539.9C604.1 545.1 606.5 553.8 606.5 556C606.5 556.7 606.7 557.5 606.9 557.9C607.2 558.3 626.7 558.5 697 558.5C809.7 558.6 837.8 559.1 840 561.2C840.6 561.9 840.5 562 839.2 562.5C835.3 564 825.2 564.2 717 564.3L607.8 564.4L607.6 566.3C607.2 573.2 605.6 578.7 603.1 582.2C597.2 590.5 590.4 593.9 580.5 593.4C575.6 593.1 574.8 593.2 573.8 594.1C570.1 597 567.2 597.7 559.2 597.7C550.1 597.8 545.1 596.6 537.5 592.8C535.3 591.6 535.1 591.6 533 592.3C527.7 594.1 520.5 593.7 513.7 591.2C506.6 588.6 502.5 585.6 493.5 576.5C484 566.9 476.2 561.9 468.2 560.3C463 559.2 332.7 559 332.8 560C332.9 560.4 333.5 563.5 334.3 566.8C337.8 581.9 335.7 592.8 327.6 600.9L324 604.5L311.2 604.5C298.5 604.5 298.4 604.5 299.2 603.5ZM1124.4 568.1C1103.3 557.1 1100.4 555.5 1094.2 552.1C1091.8 550.8 1085 547.1 1079.2 543.9C1073.5 540.7 1067 537.1 1064.8 535.8C1062.7 534.5 1060.9 533.5 1060.8 533.5C1060.6 533.5 1050.8 527.9 1044.8 524.5C1037.6 520.4 998.2 497.2 992.8 493.9C980.4 486.4 968.9 479.3 963.8 475.9C958.7 472.7 955.1 470.4 946.1 464.7C927.3 453 897.3 432.2 883.8 421.6C881 419.4 876.7 416.1 874.2 414.2C871.8 412.3 869.6 410.7 869.5 410.5C869.4 410.3 867.7 409 865.8 407.6C860 403.4 859.8 403.2 858.6 400.8C857.3 398.3 857 395.1 857.7 391.4L858.1 389.1L856 388.5C849.9 386.8 842.9 382.3 840.6 378.5C837.4 373 837.4 368.2 840.6 359.8C841.9 356.4 841.8 356.1 839.1 354.9C836.1 353.6 833.4 351.6 833.8 350.9C834 350.5 835.8 350.5 839.1 350.7L844 351L845.3 348.4C847.4 344 858.6 320.3 859 319.2C859.3 318.4 860.8 315.3 868 299.8C869.1 297.3 870.5 294.4 870.9 293.2C872.3 289.8 877 280.4 878.6 277.9C880.4 275 880.3 274.6 877 272.4C868.7 266.9 857.1 251.1 850.4 235.8C849.6 233.9 848.1 230.7 847.2 228.7C846.3 226.7 845.5 224.9 845.5 224.8C845.5 224.7 844.8 223.1 844 221.3C843.2 219.5 842.5 218 842.5 217.8C842.5 217.7 841.8 216.1 841 214.4C838.9 209.8 837.7 207 834.8 199.8C824.6 174.9 815.5 158.9 805.8 149.2C798.6 142.1 789.2 135.5 788.3 136.9C788.2 137.1 787.8 140.4 787.5 144.3C787.2 148.1 786.8 153.8 786.5 157C784.3 181.9 784 191.5 785.2 196C788.6 208.8 788.3 220.6 784.4 228.8C780.6 236.6 771 243.5 759.5 246.5C753.5 248.1 740.6 248.4 731.7 247.3C725.6 246.5 709.3 242.8 704.5 241.2C694.5 237.7 677.8 234 672.5 234C663.9 234 657.5 237.8 657.5 242.8C657.5 247.1 663.8 254.7 673.4 261.9C682.2 268.5 695.8 275.7 712.2 282.6C733.7 291.6 739.7 295.5 755.4 310.7C769.7 324.5 776.5 329.7 787.8 335.4C794.3 338.7 802.5 341.6 808.5 342.7C810.6 343.1 813.9 343.8 816 344.2C822.2 345.4 831.4 349.1 831.1 350.2C831 350.5 828.5 350.7 824.9 350.7C818.8 350.7 813.9 350 802.5 347.2C792.3 344.7 777.3 337.4 769.1 330.9L766 328.4L763.1 329.5C751.4 334 742.8 335.9 726.9 337.5C716.3 338.6 685.9 338 673.8 336.5C661.1 334.8 640.2 327.1 637.9 323.1C637 321.6 635.9 313.1 635 302.5C634.4 294.1 633.6 285.3 633 278.8C632.8 276 632.3 270.5 632 266.5C631.5 260.5 630 241.7 628.8 227.8C627.6 214.6 626.5 200.5 626 193.8C625.7 189.3 625.3 183.5 625 180.8C624.8 178 624.3 171.7 624 166.8C623.7 161.8 623.1 153.4 622.7 148C622.3 142.6 621.7 134.1 621.5 129C621.2 123.9 620.8 116.5 620.5 112.5C619.8 102.4 619.8 101.5 621.2 98.7C626.5 87.8 643.2 80.9 671.2 78C674 77.8 678.6 77.3 681.5 77C691.2 75.9 720.4 76.2 730.2 77.5C763.9 81.8 784.1 89.2 788.7 99C789.9 101.5 789.9 105.2 789.1 120.8C788.8 125.2 788.7 129 788.9 129.3C789 129.7 790.2 130.5 791.7 131.3C798.7 135 809.2 143.4 814.3 149.6C821.1 157.8 826.3 166.7 833.2 181.8C838.4 193 840.8 198.7 847.2 214.5C848.5 217.7 850.4 222.1 851.4 224.2C852.3 226.4 853.6 229.3 854.1 230.5C855.8 234.3 862.5 247.5 863.4 248.9C863.9 249.6 865 251.2 865.8 252.4C868.2 256.1 877.2 266.6 879.6 268.6C882.3 270.8 883.1 270.9 884.2 269.3C887 264.9 891.2 262.8 897 262.8C901.1 262.8 901.5 262.8 906.2 265.1C908.9 266.4 911.7 268 912.5 268.5C914.4 269.8 915.2 269.8 916.2 268.3C918.4 264.9 922.5 264.8 929.1 267.9C933.4 270 952.7 282.5 963.9 290.5C965.3 291.5 968.3 293.5 970.6 295.1C972.9 296.7 978.7 300.7 983.6 304.1C988.5 307.5 995.5 312.2 999.1 314.6C1024.4 331 1027.7 333.1 1036.8 338.8C1040.3 341 1044.7 343.7 1046.4 344.8C1051.9 348.2 1058.6 352.2 1062.5 354.5C1064.6 355.7 1068.2 357.9 1070.7 359.3C1073.1 360.8 1075.2 362 1075.3 362C1075.5 362 1076.2 362.4 1076.9 362.9C1078.1 363.7 1087.7 369.4 1093.5 372.6C1094.5 373.2 1096.5 374.3 1098 375.2C1099.5 376.1 1102.5 377.9 1104.8 379.3C1107 380.6 1110.4 382.5 1112.5 383.6C1114.6 384.8 1118.6 387 1121.5 388.7C1124.4 390.3 1127.5 392 1128.4 392.5L1130 393.2L1130 414.9L1130 436.6L1125.4 434.1C1122.8 432.8 1119 430.7 1116.9 429.5C1114.4 428.2 1112.7 427.5 1112.1 427.7C1111.1 428 1109.3 431.7 1106.5 439C1105.6 441.3 1104 445.4 1102.9 448C1101.8 450.6 1100.3 454.4 1099.6 456.4C1098 460.8 1097.9 460.6 1105 464.5C1107.6 465.9 1110.8 467.7 1112 468.4C1119.3 472.5 1125.5 475.5 1126.1 475.2C1126.6 475.1 1127.4 473.7 1128 472.2C1128.6 470.7 1129.3 469.4 1129.6 469.2C1129.8 469.1 1130 471.7 1130 475.2C1130 481.5 1130 481.5 1128.8 481.5C1128.2 481.5 1127.4 481.8 1127.1 482.1C1126.7 482.7 1122 494.1 1116.8 507.2L1114.3 513.6L1115.8 515C1117.6 516.6 1128.2 522.5 1129.3 522.5C1129.9 522.5 1130 525.7 1130 546.5C1130 561.4 1129.8 570.5 1129.5 570.5C1129.3 570.5 1127 569.4 1124.4 568.1ZM1099.5 544.4C1099.9 543.5 1100.5 541.9 1101 540.8C1103.3 535.6 1107.3 525 1109.1 519.9L1110.2 516.5L1108.7 515.3C1106.8 513.7 1095.8 507.5 1085.7 502.2C1084.3 501.5 1082.8 501 1082.4 501.1C1082 501.3 1080.2 504.8 1078.5 508.8C1073 522 1070.3 528.2 1069.9 528.7C1069 529.8 1069.6 530.8 1072.1 532.2C1073.6 533 1077 534.9 1079.8 536.4C1082.5 537.9 1086.9 540.3 1089.5 541.7C1092.1 543.1 1094.9 544.6 1095.8 545.1C1098 546.3 1098.8 546.2 1099.5 544.4ZM1039.7 503.1C1044.9 491.2 1047.6 484.5 1047.8 482.7C1048.2 480.8 1048.1 480.8 1036 473.5C1031.7 470.9 1027 468.1 1025.5 467.1C1020.8 464.3 1021.3 463.7 1014.4 479.3C1011.7 485.6 1009.1 491.4 1008.7 492.2C1008.3 493 1008 493.9 1008 494.3C1008 494.6 1011.3 496.8 1015.4 499.2C1019.4 501.6 1025.5 505.3 1028.8 507.3C1032 509.3 1035.1 510.9 1035.5 510.9C1036 511 1037.4 508.3 1039.7 503.1ZM1081.7 493.9C1082.1 493.3 1083.1 490.9 1084 488.8C1084.9 486.6 1086.6 482.4 1087.8 479.5C1091.4 470.6 1094 463.1 1093.7 462.4C1093.6 462 1092.4 461 1091.1 460.2C1087.6 457.9 1070.2 448 1068.5 447.4C1066 446.4 1066.4 445.8 1060.2 460.2C1055 472.5 1053 477.6 1053 478.5C1053 479.6 1055.6 481.7 1059.5 483.8C1061 484.7 1063.6 486.1 1065.1 487C1071.6 490.9 1079.3 494.9 1080.1 495C1080.6 495 1081.3 494.5 1081.7 493.9ZM198.3 481.3C192.6 477.9 186.9 471.9 181.8 463.9C178.9 459.3 178.2 459.8 179.8 465.6C181.3 470.9 179.7 472.4 175.4 469.7C172.7 468.1 163.7 459.2 160.6 455.3C157.1 450.8 150.1 436.5 147.7 428.8C146.6 425.5 145.7 426.8 146 431.1C146.1 432.7 145.9 433 145.2 433C143.8 433 142.2 429.7 141.5 425.7C140.8 421.7 141.1 405.9 142 401.2C142.3 399.6 142.8 397.5 142.9 396.5C143.5 393.6 144.7 394.2 144.9 397.5C145 400.5 146.7 412 147.5 415.2C149.7 424.9 153.2 434.1 157.9 442.5C161.3 448.8 172.4 462.5 174 462.5C174.7 462.5 174.6 462.2 173.4 457.2C171.8 450.3 171 444.4 170.7 436.6C170.2 426.8 170.9 427 174.4 437.5C177.3 446.4 181.5 455.4 186.2 462.5C189.4 467.2 191.7 470.1 198.2 477.2C200.4 479.6 201.5 481.3 201.3 481.7C201 482.7 200.7 482.7 198.3 481.3ZM364.9 479.6C364.8 479.1 364.9 477.3 365.1 475.5C366.5 463.1 366.6 460.7 366.3 454.2C365.9 446.8 366.2 445.4 367.7 447.7C369.7 450.7 370.7 463.7 369.5 469.4C368.2 474.8 367.8 476.4 366.9 478.4C365.9 480.6 365.2 481.1 364.9 479.6ZM976.7 472.4C977.4 471.2 979.4 467.1 981.2 463.2C982.9 459.4 984.9 455 985.6 453.5C986.3 452 987.5 449.4 988.2 447.8L989.5 444.9L987.8 443.3C985.4 441 964.4 427 963.4 427C962.2 427 947.8 456.3 948.4 457.3C948.6 457.6 951.3 459.4 954.5 461.4C957.7 463.5 963.5 467.2 967.5 469.8C971.5 472.3 974.9 474.5 975.1 474.5C975.3 474.5 976 473.5 976.7 472.4ZM375.4 461.8C375.2 461.5 375.4 460 375.8 458.5C378 450.3 378.7 436.1 377.5 428C377.2 426.2 376.8 423.2 376.5 421.2C376.2 419.3 374.6 412.9 372.9 406.9C370.1 396.9 369.7 394.5 370.9 394.5C371.3 394.5 374.4 399.2 377.9 405C378.5 406 379.5 407.3 380.3 408C381 408.7 382.3 410.2 383.1 411.4C385 414.1 385.2 413.9 386.8 407.9C389 399.3 389 385.5 386.7 368.5C383.4 344.3 388.5 324 403.7 301C412.8 287.2 429.1 273.1 447 263.6C453.6 260 471.2 251.7 478.9 248.5C487.3 245 505.4 237.1 507.5 236C535.9 221.3 547 211.7 555.6 194.8C559.5 187.1 560.5 183 560.8 174.4C561.1 167.5 561.2 167.6 556.1 168.5C549.5 169.6 549.5 169.7 543.7 175.4C521.7 197.2 486.9 213.6 459.8 214.9C444.3 215.7 432.5 214 416 208.8C406.7 205.8 401.9 204.9 396.9 205.1C391.9 205.3 390.9 205.9 389.2 210.3C388.2 212.9 387.3 213.3 385.9 211.9C385 211 384.9 210.4 385.1 207C385.6 197.9 392.9 190.3 402.7 188.5C408.4 187.4 409.6 189.3 405.2 192.5C403.7 193.6 402.5 194.7 402.5 195C402.5 196 406.5 198.8 410.7 200.8C430.9 210.3 458.7 212.3 481 205.7C492.2 202.4 497.5 200.3 508.7 194.3C521.7 187.5 530.6 180.9 542.1 169.5C556.5 155.1 560.9 144.8 561.2 124.3L561.2 117.9L558 116.7C556.2 116.1 553 115.1 550.8 114.5C543.6 112.5 531.6 107.5 528 105.1C516.4 97.3 512.8 84.4 519.4 74.1C521.7 70.6 527.8 65.1 531.2 63.4C532.1 63.1 532.6 62.5 532.5 62.2C532.2 61.7 523.2 61.8 512.5 62.5C486.5 64.3 461.1 64.4 453.2 62.8C442.7 60.7 435.8 57.6 429.9 52.1C426.4 48.9 427.7 47.6 431.9 50.2C434.6 51.9 440.7 54.5 443.6 55.2C444.8 55.5 445 55.4 445 54.5C445 54 444.8 53.4 444.5 53.2C444.2 53.1 443 51.6 441.9 50.1C432 36.7 412 22.2 395.8 16.6C381.2 11.6 372.6 10.3 355.2 10.3C328.3 10.3 306.2 16 278.8 30C264.1 37.5 254.1 44.1 237.7 57.1C233.5 60.4 230.4 62.4 224.7 65.2C199.7 77.6 180.4 96.1 167.9 119.5C165.7 123.7 162 132.4 162 133.4C162 134.8 165.8 132.7 170.5 129C174.5 125.7 175.5 125.2 176.3 126.1C176.9 126.7 176.7 127.2 174.8 130C173.6 131.8 171.1 135.6 169.2 138.5C164.7 145.6 163.3 147.7 163 148C162.9 148.1 161.2 150.5 159.4 153.2C157.6 156 154.2 160.5 151.9 163.2C133.3 185.5 127 197.6 125 214.5C124.4 219.7 123.7 221.7 122.4 221.9C120.8 222.2 120.2 220.1 120.3 213.2C120.4 197.7 127.4 183.9 147.3 159.8C159 145.5 163.4 139.4 162.2 139.1C161.8 139 160.9 139.3 160.2 139.7C158.8 140.7 157.4 140.7 156.6 139.9C153.9 137.2 161.5 117.6 170.4 104.5C179.4 91.4 194.1 76.7 204.8 70.4C210.1 67.2 217.1 63.5 221.7 61.5C224.5 60.2 227.3 58.5 229.2 56.8C244.5 43.6 263.2 31.2 280.7 22.7C289.8 18.3 292.6 17.2 301.5 14.2C304.4 13.2 307.2 12.2 307.8 12C309.8 11.1 322.4 8 328 7.1C352.9 2.8 371.4 3.5 391.8 9.3C399.6 11.5 412.9 17.5 418.7 21.5C426.9 27 429.5 29.1 435.7 35.3C440 39.5 450.4 52.3 451.8 55.1C452.2 55.8 452.9 56.7 453.4 56.9C456.9 58.8 483.9 59.3 502 57.9C524.5 56.1 530.1 55.8 543.8 55.8C563.8 55.7 567.9 57.1 574.7 66C579.9 72.7 581.8 86.5 579 97.1C578.6 98.4 578.7 99.9 579.2 102.3C585.5 131.9 580.7 162.9 567.3 178.9C566.1 180.4 565.5 181.8 565 184.1C562.5 197.6 553.4 211.5 540.5 222C527.8 232.3 514.1 239.8 489.5 250C486.1 251.4 481.8 253.2 480 254C478.2 254.8 473.8 256.7 470.2 258.3C460.7 262.4 450 267.7 447.7 269.4C445.3 271.2 444.5 273.3 443.2 282.4C441.5 293.8 444.1 308.1 450.2 320.2C452.5 324.7 452.8 325.7 452.2 327.2C451.5 329 447.7 327.6 440.1 322.7C437.8 321.2 435.9 320 435.7 320C435.2 320 435.6 322 437.7 328.1C443.5 345.2 444.4 353.4 442.2 365.5C441.1 371.1 440.4 372.6 438.6 372.4C437.5 372.3 437.1 371.8 436.5 370C435.6 367.3 430.4 359.2 429.2 358.8C428.2 358.4 428.2 358.7 431.2 367.5C434.2 376.2 436.6 384.2 439.4 394.8L441.6 403.2L441.9 414.2C442.1 423.5 442 425.5 441.3 427.1C439.9 430.6 437.8 429.9 436.5 425.5C436.2 424.3 435.4 422.5 434.7 421.4C434 420.4 433.5 419.4 433.5 419.2C433.5 419.1 432.7 417.8 431.8 416.3C429.4 412.6 422.8 401.6 421.5 399.1C420.3 396.6 420.3 394.3 421.6 394.1C422.6 393.9 429.5 404 434.8 413.4C437 417.4 437.7 416.9 437.3 411.6C436.7 403.4 434.3 393 428.5 373C427.7 370.1 426.4 365.4 425.7 362.5C425 359.6 424.3 356.8 424 356.2C423.3 354.5 421.6 348.9 421 346.1C419.8 340.2 420.9 339.4 423.8 343.9C424.8 345.5 426.2 347.6 426.9 348.8C427.7 349.9 429.8 352.9 431.7 355.5C433.7 358.1 435.7 360.9 436.1 361.6C437.5 363.7 437.9 363 438.2 358C438.7 352 436.8 340.7 433.5 329.8C433 328.1 432 324.8 431.3 322.5C428.6 313.6 427.8 306.8 429.5 306.8C429.9 306.8 431.2 308.2 432.4 309.9C434.6 313 443.2 321 444.4 321C445.3 321 445.2 320.6 443 315.1C438.3 303.1 436.5 290.4 438.2 280.5C439.4 273.8 439.6 273.8 433.6 278C417.6 288.9 403.4 305.9 396.5 322.2C393.8 328.5 392.1 335.7 391.2 344.4C390.3 352.9 390.4 355.6 392.5 369.7C395.3 388.7 394.2 404.1 388.9 417.4C387.6 420.8 386.6 420.8 383.2 417.4C380.2 414.5 379.6 414.5 380.4 417.4C383.8 428.6 383.7 444 380.2 455.4C378.4 461.2 376.2 464.1 375.4 461.8ZM1022.1 454.3C1023.9 450.6 1025.7 446.6 1030 436C1031.4 432.6 1032.8 429.3 1033.1 428.6C1033.9 427 1033.5 426.7 1020.5 418.1C1011.6 412.2 1008.6 410.5 1008 410.8C1007 411.5 1005.2 415.2 1001.3 424.8C999.6 429.1 997.5 434.1 996.8 435.7C994.8 440 994 442.4 994.3 443.2C994.6 444 1013.4 456.1 1017 457.8C1019.7 459.2 1019.9 459 1022.1 454.3ZM1066.7 438C1069.8 430.9 1074.7 419.1 1077 413.1C1078.4 409.3 1078.4 408.7 1077.8 407.8C1076.8 406.3 1053.5 392.5 1051.9 392.5C1050.7 392.5 1050.1 393.7 1045.5 405C1037.3 425.4 1037.4 424.8 1038.8 426.1C1040 427 1054.4 435.7 1059.2 438.3C1061.2 439.3 1063 440.3 1063.2 440.6C1064.4 441.6 1065.4 440.9 1066.7 438ZM4 428.5C4 423.8 4.2 420.5 4.5 420.2C4.8 419.9 5.7 417.1 6.5 414C9.8 400.9 16.2 389.5 27.5 376.5C29.3 374.4 31 372.6 31.4 372.4C32.7 371.5 40.6 361.8 41.7 359.6C42.3 358.3 44.1 354.1 45.5 350.2C51.2 334.9 56.1 327.2 66.5 317.2C78.5 305.8 82.8 301.2 85.4 297.3C88.4 292.7 88.4 292.7 86.8 292.3C85.2 291.9 84.8 290.4 85.2 285.9C86.3 273.5 92.9 260.5 103.8 249C117.4 234.6 120.5 230.4 126 219.8C127.7 216.3 128.5 215.2 129.4 215.1C131 214.9 130.9 216.7 129 222.1C125.8 231.6 122.1 237.6 114.7 245.5C99.1 262 91.7 274.1 90.2 285.9C89.8 289.1 90.3 289.2 93 286.5C95 284.3 96.5 284.2 96.5 286.2C96.5 287.8 89.8 301.2 87.2 304.8C86 306.5 82 310.6 78.1 314C62.3 328 56.6 336.3 50.2 354.2C46.4 365.1 46.4 365.1 37.7 374.3C20.7 392.3 17.5 398 9.3 424.5C8.3 427.7 6.7 431.6 5.8 433.2L4 436.2L4 428.5ZM918.4 432.6C919.2 430.7 920.7 427.5 921.5 425.5C923.4 421 923.8 420.1 926.6 414C930.5 405.6 930.4 406.1 928.5 404.4C927.5 403.6 924.1 401.2 921 399C914.8 394.9 913.6 394.1 908.6 390.4C904.1 387.1 903.8 387.2 901.2 393C900.1 395.6 897.1 402 894.6 407.1C892.1 412.3 890 416.8 890 417C890 417.9 914.8 435.9 916 436C916.4 436 917.4 434.6 918.4 432.6ZM1111.9 419.2C1113.3 416.6 1120 397.9 1120 396.6C1120 395.8 1118.7 394.9 1114.9 392.8C1112.1 391.2 1108.7 389.4 1107.5 388.7C1098.9 383.7 1092.8 380.5 1092.5 380.8C1092.2 381.3 1085.2 398.9 1083.8 403C1083.3 404.2 1083.1 405.5 1083.2 406C1083.5 406.8 1089.6 410.6 1099.2 415.9C1102.3 417.5 1105.8 419.5 1107 420.1C1109.9 421.8 1110.5 421.7 1111.9 419.2ZM961.7 420.2C962.9 419 971 401.6 971 400.2C971 400.1 971.7 398.6 972.5 396.8C974.9 391.6 975.5 389.9 975.5 388.9C975.5 388.3 973.2 386.5 967.9 383C963.7 380.2 959.2 377.2 958 376.3C955 374.1 950.2 371.8 949.4 372.1C949 372.3 947.5 375.2 946 378.6C943.1 385.2 941.5 388.7 937.6 397.1C936.2 400.1 935 402.9 935 403.5C935 404.5 936.7 406.1 940.2 408.3C941.5 409.1 944.7 411.2 947.4 413C953 416.7 960.1 421 960.6 421C960.8 421 961.3 420.6 961.7 420.2ZM1006.3 403.2C1007.2 402.8 1008.1 400.9 1011.1 393C1012.1 390.1 1013.8 386.1 1014.7 384C1017.3 378.3 1019 374 1019 373.3C1019 372.6 1018.1 371.9 1009.6 366.2C1001.4 360.6 994.7 356.5 993.7 356.5C993.3 356.5 992.5 357.5 992 358.6C989.7 363.6 985.6 373.4 985 375.2C984.6 376.4 983.5 379.3 982.4 381.7C980 387.3 980 387.5 985.8 391.3C1005.9 404.4 1004.8 403.7 1006.3 403.2ZM230.9 396C229.7 395.2 229.8 394.1 231.5 388.9C234.5 380 234.1 379 229.8 383.9C226 388.2 223.2 390.3 218.2 392.8C212.2 395.8 208.3 396.5 206.9 395.1L205.8 394.1L207.3 388.4C208.9 381.8 209.5 370.1 208.5 364.8C207.7 360.4 207 357.4 206.5 356.2C206.3 355.7 205.4 353.4 204.5 351.2C202.5 346.1 200.3 342.3 195.4 335.8C188.7 326.8 183.6 321.9 168.4 309.8C153.3 297.8 146.1 290.2 141.8 281.6C133 264.2 134.2 247.5 146 220.2C146.2 219.7 147.5 216.1 148.8 212.2C151.4 204.5 151.7 203.9 152.5 205.4C153.5 207.4 150.8 219.4 146.2 232.8C138.3 256.2 140.4 272.4 153.6 289.1C157.4 294 161.5 297.8 171 305.4C175 308.6 178.4 311.3 178.5 311.5C178.6 311.6 181.1 313.8 184 316.3C202.5 332.3 212.5 348.6 214.5 366.2C215.4 374.6 215 379.5 212.7 386.8C212.2 388.3 212 389.7 212.2 389.9C212.8 390.4 219.8 386.5 223.6 383.4C227.3 380.5 231.3 375.7 233.8 371.2C234.5 369.9 235.5 368.1 236 367.2C236.5 366.4 237.2 365.8 237.5 365.8C239.1 365.8 238.3 380.1 236.4 386.5C235.3 390.1 235.7 390.3 239.4 388.2C252.9 380.9 264.3 363.4 268 344.8C268.9 340.1 270 338.6 270.8 341C271.3 342.9 271.1 352.9 270.4 358.7C270 361.6 269.9 364.2 270.1 364.3C270.6 364.6 275.9 360 278.3 357.2C281.3 353.6 285 347.8 286.1 344.8C289.7 335.4 291.1 329.6 292.2 319.8C293.5 308.5 293.6 305.1 293 293C292.3 277.3 291.2 269 288.2 256.5C284.6 241.7 281.6 234.8 269.4 212.2C264.8 203.8 262.9 199.1 261.7 193.6C260.3 186.3 261.4 186.2 264.7 193.6C267.1 198.9 270.2 204.8 274 211.2C281 223.1 285.1 231.1 288 238.5C289.9 243.2 293 252.9 293 253.9C293 254.4 293.3 255.1 293.7 255.5C294.3 255.9 294.5 255.6 295.2 253.9C298.1 245.9 299.5 236.7 299.5 224.6C299.5 213.7 298.7 208 295.7 197.1C291.2 181.3 286.3 171.2 273.1 151C268.5 144 267.1 141 268.5 141C269.8 141 277.5 149.2 282.7 156.2C283.9 157.8 284.3 156.6 284.7 150.6C285.2 141.8 284.4 134.4 281.7 120.8C278.7 105.6 279.4 101.7 283.4 111.6C285.6 117.1 286.6 120.5 288.6 129.5C290.1 136.6 290.3 152.7 288.8 159.8L287.9 164.3L292.6 173.8C304.5 197.8 308 221.6 303.3 244.8C301.7 252.5 299.3 260 296.9 264.8C296.3 266 296.5 269.5 297.5 276.5C299.5 291.4 299.4 314.1 297.2 327.5C294 346.5 283.9 363.3 271.3 370.2C267.8 372.2 266.5 371.8 266.5 368.5C266.5 367.1 266.3 366 266.1 366C265.9 366 264.9 367.6 263.9 369.6C259.1 378.9 253.2 385.8 245.7 390.8C239.3 395 233 397.3 230.9 396ZM1051.1 384.6C1056.1 372.9 1059.6 364.1 1059.8 362.8C1060.1 361.2 1060 361.1 1055.7 358.5C1050.3 355.3 1041.7 350 1038.1 347.7C1034.1 345.1 1034.1 345.2 1031.3 352.1C1029.9 355.5 1027.6 360.9 1026.2 364C1023 370.9 1023.1 370.6 1025.1 372.2C1029.4 375.4 1048.3 386.5 1049.5 386.5C1050 386.5 1050.7 385.7 1051.1 384.6ZM862.9 381.9C865.5 377.9 867.1 374.9 866.8 374.2C866.7 373.9 865.8 373.2 864.9 372.7C862.7 371.6 853.4 365.3 850.3 362.9L847.8 360.9L846.9 362C845.5 363.7 843.8 369.8 844.2 371.6C844.9 375.3 850.2 379.9 857 382.7C860.8 384.3 861.3 384.3 862.9 381.9ZM902.8 381.1C903.4 380.8 904.4 378.8 907.4 372C907.8 371 910 366.2 912.3 361.3C917.9 349.4 917.8 349.7 914.2 346.9C909.5 343.4 895.6 334 895 334C894.7 334 893.7 335.7 892.7 337.9C890.2 343.4 883 357.6 880.6 361.7C879.1 364.4 878.7 365.4 879.1 365.9C880.4 367.5 894.3 377.5 898.6 380C901.4 381.6 901.9 381.7 902.8 381.1ZM871.2 367.2C872.8 364.5 877 356.3 877 355.9C877 355.7 875 354.5 872.6 353.2C867.3 350.4 860.3 345.6 858.3 343.5C856.5 341.7 855.9 341.6 855.1 343.1C852.7 348 850 354.3 850 355.2C850 356.4 852.2 358.5 856.4 361.5C858 362.6 861.3 364.9 863.8 366.7C866.2 368.5 868.6 369.9 869 369.9C869.4 369.8 870.3 368.6 871.2 367.2ZM950.7 360.8C952 358.2 954 353.5 955.2 350.5C956.5 347.5 958.5 342.8 959.8 340C961.1 337.1 961.9 334.6 961.8 334.1C961.5 333.3 945.2 322.4 939.3 319.1C935.9 317.2 935.3 317.3 934 320.1C927.4 334.6 921.9 347.9 922.1 348.6C922.3 349.1 934.5 357.5 945.5 364.6C947.8 366.1 948.3 365.8 950.7 360.8ZM882.5 345.2C886.1 337.8 886.2 338.3 881 334.8C879 333.4 875.5 330.9 873.3 329.2C868 325.3 865.7 323.9 864.7 324.1C864.3 324.2 863 326.5 861.7 329.2C860.5 332 859.1 334.9 858.7 335.7C857.9 337 857.9 337.1 859.3 338.5C860 339.3 862 340.6 863.6 341.5C865.2 342.4 867.3 343.7 868.2 344.5C869 345.2 871.4 346.9 873.4 348.2C875.3 349.5 877.1 350.7 877.3 351C877.4 351.3 878 351.5 878.5 351.5C879.2 351.5 880.2 350 882.5 345.2ZM994 347.2C994.7 345.9 996.4 342.2 997.7 339C999.1 335.8 1000.8 331.9 1001.6 330.2C1003.6 325.8 1003.5 325.5 999.9 323.2C998.2 322.2 992.3 318.3 986.8 314.6C975.7 307.2 976.4 307.4 974.5 312C973.9 313.5 973 315.6 972.5 316.8C971.5 319 968 327.4 967 329.8C965.9 332.8 966 333 979.2 341.7C986.1 346.3 992 349.9 992.2 349.8C992.5 349.8 993.3 348.6 994 347.2ZM890.7 327.9C895 318.8 895.8 316.8 895.1 316.6C894.5 316.4 894.1 316.2 887.8 311.8C879.5 306.1 874.8 303.4 874 303.9C873 304.5 871 308 869.3 312.2C868.5 314.2 867.7 316.3 867.3 316.9C866.5 318.6 867.1 319.3 873.6 323.8C883.2 330.4 885.3 331.9 886 332.7C887.3 334.3 888.1 333.5 890.7 327.9ZM732.5 331.3C744.5 329.8 760.5 325.9 760.5 324.4C760.5 323.5 743.2 306.4 738.5 302.5C733.7 298.6 723.7 293.5 704.5 285.2C683.5 276.2 670.4 268 659.8 257.3C654 251.5 651.7 247.3 651.8 242.7C651.9 232.5 663.2 227 680 229.2C685.8 230 695.7 232.3 702.5 234.5C712.5 237.7 728.4 241.2 737.5 242.1C745.4 242.9 755.4 242.1 761 240.2C767.2 238.1 775 233.5 775 232.1C775 231.6 775.6 225.2 776.3 217.8C776.9 210.3 777.5 203 777.5 201.4C777.5 199.8 777.7 196.9 778 195.1C778.2 193.3 778.7 188.3 779 184C780 170.2 780.6 162.7 782 148C782.2 145.4 782.7 140.7 783 137.5C784.1 125.8 784.8 116.2 784.7 116C784.5 115.9 783.8 116.2 783.1 116.7C780.7 118.2 772.9 121.8 769 123.2C757 127.2 729.6 130 706.7 129.3C681.2 128.7 662.7 127.5 654.2 125.9C643.8 124.1 631.8 119.8 627.6 116.4C625.5 114.8 625.4 115.8 626.2 124.3C626.6 128.7 627.3 137.5 627.8 144C628.2 150.5 628.7 157.8 629 160.2C629.3 162.7 629.9 170.5 630.5 177.5C631.6 192.4 633.3 212.4 634 220.2C634.2 223.3 634.8 230.2 635.2 235.8C635.7 241.2 636.2 247.8 636.5 250.2C636.8 252.7 637.4 260.6 638 267.8C638.5 274.9 639.3 285.1 639.8 290.5C640.2 295.9 640.8 304.5 641.2 309.8C641.5 315 642 319.6 642.2 319.9C642.7 320.7 645.9 322.7 649.1 324.3C655.5 327.6 669.7 330.8 683 332C690.9 332.7 724.7 332.2 732.5 331.3ZM899 310.9C902.5 303.8 904.6 298 904 297.2C903.7 296.8 903.2 296.5 902.9 296.5C902.7 296.5 898.2 294.1 893.1 291.2C887.9 288.4 883.3 286 882.8 286C881.8 286 881.1 287.2 878.5 293.1C876.2 298.4 876.2 298.9 878.3 300C880.8 301.3 890.6 307.9 893.8 310.5C897.4 313.5 897.7 313.5 899 310.9ZM935.5 310.4C936.6 308.3 938.6 303.8 942.3 295C943.5 292.1 944.9 289.1 945.3 288.3C946.4 286.4 946.1 286.2 936.3 279.6C925.3 272.3 922 270.9 921 273C920.5 274 919.6 276.4 917.2 283C916.2 285.9 914.2 290.5 912.9 293.2C911.6 296 910.5 298.3 910.5 298.5C910.5 298.8 914.8 302 915.2 302C915.3 302 917.3 303.2 919.6 304.6C921.9 306 924.9 307.8 926.4 308.6C927.8 309.4 929.9 310.6 930.9 311.2C933.5 313 934.3 312.8 935.5 310.4ZM907.5 292.1C907.8 291.4 909.3 288 910.8 284.5C912.3 281.1 913.8 278 914.1 277.6C914.8 276.8 914.4 276.4 909.3 273.4C905.5 271.1 900 269 898 269C893.7 269 888.1 273.4 885.6 278.7C884.2 281.6 884.1 281.4 886.7 282.5C887.9 283 890.3 284.3 892.1 285.4C893.8 286.5 897.3 288.5 899.9 290C902.4 291.4 904.6 292.8 904.8 293C905.3 294 906.9 293.5 907.5 292.1ZM783.3 214.9C783.6 212.3 783.1 209.1 782.5 209.8C782.1 210.2 781.7 216.1 781.9 218C782.1 219.4 782.9 217.5 783.3 214.9ZM653.9 205.9C653.5 205.7 653.9 205 654.9 204.1L656.5 202.6L656.4 189.9L656.2 177.2L655 177.2C653.9 177.2 653.8 177.5 653.8 179.2C653.8 181.4 653 182 652.1 180.5C651.2 179 651.8 176.7 653.4 175.5C655.1 174.1 670.2 174 673.5 175.3C678.6 177.4 679.5 184.9 674.8 187.3L673.3 188.1L674.4 188.9C677.3 191 679.2 192.9 679.8 194.4C680.6 196.2 681.5 196.1 681.5 194.3C681.5 192.5 684.3 188.7 686.6 187.2C690.9 184.5 695.9 185.3 699.2 189.1C705.4 196.3 700.2 207 690.8 206.4C686.4 206.1 683.9 204.4 682.1 200.6L680.9 197.8L680.1 199.5C677.4 205.3 675.2 206.2 663.6 206.2C658.5 206.2 654.2 206.1 653.9 205.9ZM706.5 206.1C704.1 205.6 703.5 205.1 702.9 203.6C702.1 201.5 702.8 200 704.4 200C706.1 200 706.7 200.6 707.2 202.6C707.8 205.3 711.7 205.7 713.3 203.2C714.4 201.6 713.5 200.5 708.9 198.2C702.4 194.9 701.3 190.4 706.1 186.9C707.9 185.6 713.9 185.4 716 186.5C718.2 187.7 718.5 190.2 716.4 191.4C715.4 192.1 715.2 192 714.4 191C713.9 190.4 713.5 189.5 713.5 189C713.5 187.4 709.7 186.9 708.5 188.2C707.2 189.9 708.3 191.5 712.1 193.3C717.8 195.9 720 199 718.5 202.4C717.2 205.7 712 207.2 706.5 206.1ZM725.4 205.9C719.2 203 718 193.3 723.1 188.5C726.4 185.4 732.1 184.8 735.2 187.2C738.1 189.4 738.1 193 735.1 193C732.9 193 732.2 192.3 732.2 189.9C732.2 187.3 730.6 186.5 728.1 188C724.9 189.9 724.9 198.2 728 201.5C729.7 203.4 733.1 203.6 735.1 202C736.8 200.7 737.6 200.7 737.4 202.1C737.3 202.7 736.3 203.9 735.1 204.7C732.7 206.4 727.8 207 725.4 205.9ZM743.7 205.3C740.5 203.8 739.1 201.5 738.7 197.3C737.6 186.2 752.7 181.2 757.6 191C762.4 200.4 753.3 209.8 743.7 205.3ZM750.7 204.2C752.2 202.7 752.6 201.4 752.6 197.3C752.7 190.3 750.6 186.2 747.7 187.6C745.6 188.6 744.9 190.6 744.8 195.2C744.8 199.9 745.6 202.6 747.4 204C748.9 205.2 749.7 205.3 750.7 204.2ZM671.1 202.5C673.7 199.7 673.6 194.2 671 191.5C669.3 189.9 665.5 189 664 189.9C663 190.5 662.6 201.7 663.6 202.9C665.3 205 669 204.8 671.1 202.5ZM694.3 203.3C696.9 199.2 695.4 188.5 692.1 187.7C687.5 186.5 685.7 199 689.8 203.6C691 204.9 693.3 204.8 694.3 203.3ZM669.8 186.8C671.1 185.7 671.2 185.3 671.2 182.3C671.2 179.1 671.2 178.8 669.6 177.5C667.6 175.6 664.9 175.5 663.8 177.1C663 178.3 662.6 186.9 663.3 187.7C664.2 188.5 668.5 188 669.8 186.8ZM568.9 166.9C575.8 153 578.6 130.9 575.8 111.5C575.2 106.7 574.7 106.3 572.6 109.2C571.8 110.3 570 112.5 568.7 114L566.1 116.8L565.8 124C565.3 134.3 563.5 145.4 561.3 151.4C560.2 154.4 560.3 155.3 561.9 159.4C563.3 162.6 564.4 166.2 565.2 169.6C565.7 171.9 566.7 171.2 568.9 166.9ZM774.9 114.8C782.6 111.2 785.8 105.9 783.3 101.1C779.8 94.5 760.8 87.6 737.5 84.5C722.5 82.5 721.1 82.4 703 82.3C682.3 82.3 674.2 82.9 657.7 85.8C644.1 88.1 632.8 93.2 627.8 99.1C623 104.8 625.7 111 634.4 114.5C636 115.1 636.1 115.1 637.7 113.7C646.2 105.7 663.8 99.9 688.5 97C695.4 96.1 713.7 96.1 721 96.9C734.4 98.4 750.4 102.6 758.9 106.7C760.9 107.7 762.6 108.5 762.8 108.5C763.6 108.5 768.6 112.9 769.5 114.3C770.8 116.3 771.4 116.4 774.9 114.8ZM358.1 102C357.9 101.2 357.6 101 357.1 101.3C355.6 102 353.9 101.8 353.3 100.9C352.4 99.5 356 93.1 360.2 88.7C366.8 81.5 377.3 77.7 386.3 79.1C392.3 80 402.5 86.6 402.5 89.5C402.5 90.7 399.6 90.8 393.1 89.9C382.9 88.5 369.5 93.5 361.1 101.8C359.6 103.3 358.5 103.3 358.1 102Z"/></svg>